<svg width="386" height="72" viewBox="0 0 386 72" fill="none" xmlns="http://www.w3.org/2000/svg">
<g clip-path="url(#clip0_28_6413)">
<path d="M7.04545 63V4.81818H13.75V26.2955H14.3182C14.8106 25.5379 15.4924 24.572 16.3636 23.3977C17.2538 22.2045 18.5227 21.1439 20.1705 20.2159C21.8371 19.2689 24.0909 18.7955 26.9318 18.7955C30.6061 18.7955 33.8447 19.714 36.6477 21.5511C39.4508 23.3883 41.6383 25.9924 43.2102 29.3636C44.7822 32.7348 45.5682 36.7121 45.5682 41.2955C45.5682 45.9167 44.7822 49.9223 43.2102 53.3125C41.6383 56.6837 39.4602 59.2973 36.6761 61.1534C33.892 62.9905 30.6818 63.9091 27.0455 63.9091C24.2424 63.9091 21.9981 63.4451 20.3125 62.517C18.6269 61.5701 17.3295 60.5 16.4205 59.3068C15.5114 58.0947 14.8106 57.0909 14.3182 56.2955H13.5227V63H7.04545ZM13.6364 41.1818C13.6364 44.4773 14.1193 47.3845 15.0852 49.9034C16.0511 52.4034 17.4621 54.3636 19.3182 55.7841C21.1742 57.1856 23.447 57.8864 26.1364 57.8864C28.9394 57.8864 31.2784 57.1477 33.1534 55.6705C35.0473 54.1742 36.4678 52.1667 37.4148 49.6477C38.3807 47.1098 38.8636 44.2879 38.8636 41.1818C38.8636 38.1136 38.3902 35.3485 37.4432 32.8864C36.5152 30.4053 35.1042 28.4451 33.2102 27.0057C31.3352 25.5473 28.9773 24.8182 26.1364 24.8182C23.4091 24.8182 21.1174 25.5095 19.2614 26.892C17.4053 28.2557 16.0038 30.1686 15.0568 32.6307C14.1098 35.0739 13.6364 37.9242 13.6364 41.1818ZM44.6239 63V19.3636H51.1011V25.9545H51.5557C52.3511 23.7955 53.7905 22.0436 55.8739 20.6989C57.9572 19.3542 60.3057 18.6818 62.9193 18.6818C63.4117 18.6818 64.0273 18.6913 64.7659 18.7102C65.5045 18.7292 66.0633 18.7576 66.442 18.7955V25.6136C66.2148 25.5568 65.6939 25.4716 64.8795 25.358C64.0841 25.2254 63.2413 25.1591 62.3511 25.1591C60.2299 25.1591 58.336 25.6042 56.6693 26.4943C55.0216 27.3655 53.7148 28.5777 52.7489 30.1307C51.8019 31.6648 51.3284 33.4167 51.3284 35.3864V63H44.6239ZM76.0304 64.0227C73.2652 64.0227 70.7558 63.5019 68.502 62.4602C66.2482 61.3996 64.4584 59.875 63.1327 57.8864C61.8069 55.8788 61.144 53.4545 61.144 50.6136C61.144 48.1136 61.6365 46.0871 62.6213 44.5341C63.6062 42.9621 64.9224 41.7311 66.5702 40.8409C68.2179 39.9508 70.0361 39.2879 72.0247 38.8523C74.0323 38.3977 76.0493 38.0379 78.0759 37.7727C80.7274 37.4318 82.877 37.1761 84.5247 37.0057C86.1914 36.8163 87.4035 36.5038 88.1611 36.0682C88.9376 35.6326 89.3259 34.875 89.3259 33.7955V33.5682C89.3259 30.7652 88.5588 28.5871 87.0247 27.0341C85.5096 25.4811 83.2084 24.7045 80.1213 24.7045C76.9205 24.7045 74.4111 25.4053 72.5929 26.8068C70.7747 28.2083 69.4963 29.7045 68.7577 31.2955L62.394 29.0227C63.5304 26.3712 65.0455 24.3068 66.9395 22.8295C68.8524 21.3333 70.9357 20.2917 73.1895 19.7045C75.4622 19.0985 77.6971 18.7955 79.894 18.7955C81.2955 18.7955 82.9054 18.9659 84.7236 19.3068C86.5607 19.6288 88.3315 20.3011 90.0361 21.3239C91.7596 22.3466 93.1895 23.8902 94.3259 25.9545C95.4622 28.0189 96.0304 30.7841 96.0304 34.25V63H89.3259V57.0909H88.9849C88.5304 58.0379 87.7728 59.0511 86.7122 60.1307C85.6516 61.2102 84.2406 62.1288 82.4793 62.8864C80.7179 63.6439 78.5683 64.0227 76.0304 64.0227ZM77.0531 58C79.7046 58 81.9395 57.4792 83.7577 56.4375C85.5948 55.3958 86.9774 54.0511 87.9054 52.4034C88.8524 50.7557 89.3259 49.0227 89.3259 47.2045V41.0682C89.0418 41.4091 88.4168 41.7216 87.4509 42.0057C86.5039 42.2708 85.4054 42.5076 84.1554 42.7159C82.9243 42.9053 81.7217 43.0758 80.5474 43.2273C79.3921 43.3598 78.4546 43.4735 77.7349 43.5682C75.9925 43.7955 74.3637 44.1648 72.8486 44.6761C71.3524 45.1686 70.1402 45.9167 69.2122 46.9205C68.3031 47.9053 67.8486 49.25 67.8486 50.9545C67.8486 53.2841 68.7103 55.0455 70.4338 56.2386C72.1762 57.4129 74.3827 58 77.0531 58ZM103.772 36.75V63H97.0676V19.3636H103.545V26.1818H104.113C105.136 23.9659 106.689 22.1856 108.772 20.8409C110.855 19.4773 113.545 18.7955 116.84 18.7955C119.795 18.7955 122.38 19.4015 124.596 20.6136C126.812 21.8068 128.535 23.625 129.766 26.0682C130.998 28.4924 131.613 31.5606 131.613 35.2727V63H124.909V35.7273C124.909 32.2992 124.018 29.6288 122.238 27.7159C120.458 25.7841 118.015 24.8182 114.909 24.8182C112.768 24.8182 110.855 25.2822 109.17 26.2102C107.503 27.1383 106.187 28.4924 105.221 30.2727C104.255 32.053 103.772 34.2121 103.772 36.75ZM149.142 63.9091C145.505 63.9091 142.295 62.9905 139.511 61.1534C136.727 59.2973 134.549 56.6837 132.977 53.3125C131.405 49.9223 130.619 45.9167 130.619 41.2955C130.619 36.7121 131.405 32.7348 132.977 29.3636C134.549 25.9924 136.736 23.3883 139.539 21.5511C142.343 19.714 145.581 18.7955 149.255 18.7955C152.096 18.7955 154.341 19.2689 155.988 20.2159C157.655 21.1439 158.924 22.2045 159.795 23.3977C160.685 24.572 161.377 25.5379 161.869 26.2955H162.437V4.81818H169.142V63H162.664V56.2955H161.869C161.377 57.0909 160.676 58.0947 159.767 59.3068C158.858 60.5 157.56 61.5701 155.875 62.517C154.189 63.4451 151.945 63.9091 149.142 63.9091ZM150.051 57.8864C152.74 57.8864 155.013 57.1856 156.869 55.7841C158.725 54.3636 160.136 52.4034 161.102 49.9034C162.068 47.3845 162.551 44.4773 162.551 41.1818C162.551 37.9242 162.077 35.0739 161.13 32.6307C160.183 30.1686 158.782 28.2557 156.926 26.892C155.07 25.5095 152.778 24.8182 150.051 24.8182C147.21 24.8182 144.843 25.5473 142.949 27.0057C141.074 28.4451 139.663 30.4053 138.716 32.8864C137.788 35.3485 137.324 38.1136 137.324 41.1818C137.324 44.2879 137.797 47.1098 138.744 49.6477C139.71 52.1667 141.13 54.1742 143.005 55.6705C144.899 57.1477 147.248 57.8864 150.051 57.8864Z" fill="black"/>
<path d="M199.864 28.5682L198.045 29.0227C197.458 27.1288 196.634 25.5568 195.574 24.3068C194.532 23.0379 193.254 22.0909 191.739 21.4659C190.223 20.822 188.462 20.5 186.455 20.5C182.97 20.5 180.148 21.3902 177.989 23.1705C175.83 24.9318 174.75 27.2614 174.75 30.1591C174.75 32.4508 175.479 34.3731 176.938 35.9261C178.415 37.4792 180.64 38.625 183.614 39.3636L190.432 41.0682C193.633 41.8636 196.057 43.2083 197.705 45.1023C199.371 46.9962 200.205 49.2879 200.205 51.9773C200.205 54.3447 199.58 56.428 198.33 58.2273C197.098 60.0265 195.394 61.428 193.216 62.4318C191.038 63.4167 188.519 63.9091 185.659 63.9091C181.777 63.9091 178.604 62.9621 176.142 61.0682C173.68 59.1742 172.08 56.4848 171.341 53L173.159 52.5455C173.803 55.6326 175.176 58 177.278 59.6477C179.4 61.2765 182.193 62.0909 185.659 62.0909C189.447 62.0909 192.515 61.1629 194.864 59.3068C197.212 57.4508 198.386 55.0076 198.386 51.9773C198.386 49.7235 197.686 47.8201 196.284 46.267C194.883 44.714 192.78 43.5871 189.977 42.8864L183.159 41.1818C179.807 40.3485 177.259 38.9848 175.517 37.0909C173.794 35.197 172.932 32.8864 172.932 30.1591C172.932 27.8674 173.5 25.8693 174.636 24.1648C175.792 22.4413 177.383 21.0966 179.409 20.1307C181.455 19.1648 183.803 18.6818 186.455 18.6818C189.826 18.6818 192.638 19.5151 194.892 21.1818C197.146 22.8295 198.803 25.2917 199.864 28.5682ZM216.017 19.3636V21.1818H198.744V19.3636H216.017ZM205.108 8.90909H206.926V53.7955C206.926 55.5 207.305 56.9678 208.062 58.1989C208.82 59.411 209.824 60.3485 211.074 61.0114C212.324 61.6553 213.668 61.9773 215.108 61.9773C215.657 61.9773 216.159 61.9299 216.613 61.8352C217.087 61.7405 217.57 61.5985 218.062 61.4091L218.63 63.1136C218.062 63.322 217.504 63.483 216.954 63.5966C216.405 63.7292 215.789 63.7955 215.108 63.7955C213.327 63.7955 211.67 63.3883 210.136 62.5739C208.621 61.7595 207.399 60.6042 206.471 59.108C205.562 57.6117 205.108 55.8409 205.108 53.7955V8.90909ZM247.575 48.6818V19.3636H249.393V63H247.575V56.0682H247.347C246.325 58.3409 244.639 60.1591 242.291 61.5227C239.961 62.8864 237.291 63.5682 234.279 63.5682C231.363 63.5682 228.787 62.9337 226.552 61.6648C224.317 60.3958 222.565 58.6439 221.296 56.4091C220.027 54.1742 219.393 51.5985 219.393 48.6818V19.3636H221.211V48.6818C221.211 52.5455 222.423 55.6894 224.847 58.1136C227.272 60.5379 230.416 61.75 234.279 61.75C236.855 61.75 239.137 61.1913 241.126 60.0739C243.133 58.9564 244.705 57.4129 245.842 55.4432C246.997 53.4735 247.575 51.2197 247.575 48.6818ZM268.266 63.9091C264.819 63.9091 261.836 62.9242 259.317 60.9545C256.798 58.9659 254.857 56.267 253.493 52.858C252.13 49.4489 251.448 45.5947 251.448 41.2955C251.448 37.0152 252.139 33.1705 253.522 29.7614C254.904 26.3523 256.855 23.6534 259.374 21.6648C261.893 19.6761 264.857 18.6818 268.266 18.6818C270.577 18.6818 272.707 19.1648 274.658 20.1307C276.609 21.0777 278.304 22.4413 279.743 24.2216C281.183 25.983 282.281 28.0758 283.039 30.5H283.266V4.81818H285.084V63H283.266V52.0909H283.039C282.243 54.4962 281.136 56.589 279.715 58.3693C278.295 60.1307 276.609 61.4943 274.658 62.4602C272.726 63.4261 270.596 63.9091 268.266 63.9091ZM268.266 62.0909C271.353 62.0909 274.014 61.1818 276.249 59.3636C278.503 57.5265 280.236 55.0455 281.448 51.9205C282.66 48.7765 283.266 45.2348 283.266 41.2955C283.266 37.3561 282.651 33.8239 281.42 30.6989C280.207 27.5549 278.475 25.0739 276.221 23.2557C273.986 21.4186 271.334 20.5 268.266 20.5C265.198 20.5 262.537 21.4186 260.283 23.2557C258.048 25.0739 256.315 27.5549 255.084 30.6989C253.872 33.8239 253.266 37.3561 253.266 41.2955C253.266 45.2348 253.872 48.7765 255.084 51.9205C256.296 55.0455 258.02 57.5265 260.255 59.3636C262.509 61.1818 265.179 62.0909 268.266 62.0909ZM291.301 63V19.3636H293.12V63H291.301ZM292.211 11.4091C291.718 11.4091 291.292 11.2292 290.932 10.8693C290.572 10.5095 290.392 10.0833 290.392 9.59091C290.392 9.09848 290.572 8.67235 290.932 8.3125C291.292 7.95265 291.718 7.77273 292.211 7.77273C292.703 7.77273 293.129 7.95265 293.489 8.3125C293.849 8.67235 294.029 9.09848 294.029 9.59091C294.029 10.0833 293.849 10.5095 293.489 10.8693C293.129 11.2292 292.703 11.4091 292.211 11.4091ZM313.463 63.9091C310.035 63.9091 306.957 62.9242 304.23 60.9545C301.503 58.9659 299.344 56.267 297.753 52.858C296.181 49.4299 295.395 45.5758 295.395 41.2955C295.395 36.9962 296.181 33.142 297.753 29.733C299.344 26.3239 301.503 23.6345 304.23 21.6648C306.957 19.6761 310.035 18.6818 313.463 18.6818C316.891 18.6818 319.959 19.6761 322.668 21.6648C325.395 23.6534 327.554 26.3523 329.145 29.7614C330.736 33.1705 331.531 37.0152 331.531 41.2955C331.531 45.5758 330.736 49.4299 329.145 52.858C327.573 56.267 325.423 58.9659 322.696 60.9545C319.969 62.9242 316.891 63.9091 313.463 63.9091ZM313.463 62.0909C316.55 62.0909 319.315 61.1818 321.759 59.3636C324.221 57.5455 326.162 55.0644 327.582 51.9205C329.003 48.7765 329.713 45.2348 329.713 41.2955C329.713 37.3561 328.993 33.8239 327.554 30.6989C326.134 27.5549 324.202 25.0739 321.759 23.2557C319.315 21.4186 316.55 20.5 313.463 20.5C310.395 20.5 307.63 21.4186 305.168 23.2557C302.724 25.0739 300.783 27.5549 299.344 30.6989C297.923 33.8239 297.213 37.3561 297.213 41.2955C297.213 45.2348 297.923 48.7765 299.344 51.9205C300.764 55.0644 302.696 57.5455 305.139 59.3636C307.601 61.1818 310.376 62.0909 313.463 62.0909ZM359.673 28.5682L357.855 29.0227C357.268 27.1288 356.444 25.5568 355.383 24.3068C354.342 23.0379 353.063 22.0909 351.548 21.4659C350.033 20.822 348.271 20.5 346.264 20.5C342.779 20.5 339.957 21.3902 337.798 23.1705C335.639 24.9318 334.559 27.2614 334.559 30.1591C334.559 32.4508 335.289 34.3731 336.747 35.9261C338.224 37.4792 340.45 38.625 343.423 39.3636L350.241 41.0682C353.442 41.8636 355.866 43.2083 357.514 45.1023C359.181 46.9962 360.014 49.2879 360.014 51.9773C360.014 54.3447 359.389 56.428 358.139 58.2273C356.908 60.0265 355.203 61.428 353.025 62.4318C350.847 63.4167 348.328 63.9091 345.468 63.9091C341.586 63.9091 338.414 62.9621 335.951 61.0682C333.489 59.1742 331.889 56.4848 331.15 53L332.968 52.5455C333.612 55.6326 334.986 58 337.088 59.6477C339.209 61.2765 342.003 62.0909 345.468 62.0909C349.256 62.0909 352.325 61.1629 354.673 59.3068C357.021 57.4508 358.196 55.0076 358.196 51.9773C358.196 49.7235 357.495 47.8201 356.093 46.267C354.692 44.714 352.59 43.5871 349.787 42.8864L342.968 41.1818C339.616 40.3485 337.069 38.9848 335.326 37.0909C333.603 35.197 332.741 32.8864 332.741 30.1591C332.741 27.8674 333.309 25.8693 334.446 24.1648C335.601 22.4413 337.192 21.0966 339.218 20.1307C341.264 19.1648 343.612 18.6818 346.264 18.6818C349.635 18.6818 352.448 19.5151 354.701 21.1818C356.955 22.8295 358.612 25.2917 359.673 28.5682Z" fill="black"/>
<circle cx="371.5" cy="62.5" r="3.5" fill="#AC0000"/>
<path d="M295.804 10C295.804 11.933 294.237 13.5 292.304 13.5C290.371 13.5 288.804 11.933 288.804 10C288.804 8.067 290.371 6.5 292.304 6.5C294.237 6.5 295.804 8.067 295.804 10Z" fill="#AC0000"/>
</g>
<defs>
<clipPath id="clip0_28_6413">
<rect width="386" height="72" fill="white"/>
</clipPath>
</defs>
</svg>
